<?xml version="1.0" standalone="no"?>
<!DOCTYPE svg PUBLIC "-//W3C//DTD SVG 20010904//EN"
 "http://www.w3.org/TR/2001/REC-SVG-20010904/DTD/svg10.dtd">
<svg version="1.0" xmlns="http://www.w3.org/2000/svg"
 width="120.000000pt" height="150.000000pt" viewBox="0 0 120.000000 150.000000"
 preserveAspectRatio="xMidYMid meet">
<metadata>
Created by potrace 1.15, written by Peter Selinger 2001-2017
</metadata>
<g transform="translate(0.000000,150.000000) scale(0.100000,-0.100000)"
fill="#000000" stroke="none">
<path d="M400 1350 c-25 -5 -81 -22 -124 -37 -91 -32 -92 -33 -128 -181 -39
-162 -23 -404 36 -546 13 -32 22 -37 108 -65 140 -44 213 -54 357 -48 128 5
198 19 299 60 53 21 56 25 74 77 51 151 60 351 22 523 -16 71 -19 76 -39 71
-18 -4 -24 0 -29 19 -3 14 -15 27 -26 30 -14 4 -19 12 -18 28 3 21 -5 26 -77
48 -68 20 -105 24 -245 27 -91 2 -185 -1 -210 -6z m30 -184 c0 -22 -3 -24 -34
-19 -51 8 -52 -12 -1 -47 38 -26 45 -36 45 -65 0 -24 -7 -39 -22 -49 -44 -31
-127 -11 -113 26 5 14 11 15 30 6 27 -12 55 -5 55 14 0 8 -15 22 -34 32 -41
22 -59 57 -46 90 11 29 22 34 78 35 38 1 42 -1 42 -23z m220 -38 c8 1 27 4 42
7 22 6 32 2 49 -17 l22 -24 23 23 c43 43 108 19 120 -44 l7 -33 -53 0 c-47 0
-51 -2 -39 -16 9 -11 22 -14 41 -10 21 4 30 1 35 -10 15 -39 -75 -47 -112 -10
-24 24 -24 24 -27 2 -2 -15 -10 -21 -28 -21 -23 0 -25 4 -28 58 -3 49 -6 58
-20 55 -13 -2 -18 -16 -20 -61 -3 -53 -5 -57 -27 -57 -24 0 -25 3 -25 61 0 57
-1 60 -22 57 -20 -3 -23 -10 -26 -60 -3 -50 -6 -58 -22 -58 -18 0 -20 7 -20
79 l0 80 38 4 c20 2 46 2 57 0 11 -3 27 -5 35 -5z m58 -210 c2 -26 7 -35 17
-32 7 3 28 -2 45 -11 18 -9 29 -12 26 -6 -5 7 4 11 22 11 24 0 32 -7 48 -42
l18 -41 19 41 c14 33 23 42 43 42 29 0 29 2 -17 -119 -33 -85 -53 -111 -86
-111 -29 0 -29 17 -1 47 l22 23 -26 53 c-24 46 -27 49 -27 24 -1 -16 -12 -39
-26 -53 -21 -21 -33 -25 -73 -22 l-47 3 -3 58 c-3 54 -5 58 -25 55 -19 -3 -22
-10 -25 -60 -3 -54 -5 -58 -27 -58 -24 0 -25 2 -25 80 l0 80 50 0 50 0 0 33
c0 38 7 49 30 45 9 -2 16 -16 18 -40z m-323 -8 c15 -14 28 -40 32 -62 4 -29
10 -38 20 -34 8 4 26 6 39 6 13 0 24 5 24 11 0 7 -14 10 -35 7 -32 -4 -36 -2
-33 16 2 17 11 22 45 24 55 4 73 -21 73 -99 l0 -57 -55 -1 c-57 0 -85 15 -85
47 -1 15 -2 15 -11 -1 -15 -25 -70 -47 -119 -47 l-40 0 0 111 0 111 60 -4 c45
-3 66 -10 85 -28z"/>
</g>
</svg>
